<svg width="103" height="69" viewBox="0 0 103 69" fill="none" xmlns="http://www.w3.org/2000/svg"><path fill="#fff" d="M32.6901 11.6997L40.9401 29.7997L59.8601 31.4897C61.1001 31.5997 61.6501 33.1097 60.7601 33.9897L46.8601 47.7697L50.3401 65.7397C50.5701 66.9397 49.3301 67.8797 48.2401 67.3297L31.3401 58.8397L14.4401 67.2597C13.3501 67.7997 12.1201 66.8597 12.3501 65.6697L15.8301 47.7897L1.93008 33.9897C1.04008 33.1097 1.59008 31.5997 2.83008 31.4897L21.7601 29.7997L30.0101 11.6997C30.5401 10.5597 32.1601 10.5597 32.6901 11.6997Z" stroke="#2B388C" stroke-width="3" stroke-miterlimit="10" stroke-linejoin="round"/><path fill="#fff" d="M47.75 23.3004L54.59 8.30039C55.02 7.35039 56.37 7.35039 56.8 8.30039L63.64 23.3004L79.32 24.7004C80.35 24.7904 80.8 26.0404 80.07 26.7704L68.55 38.1904L71.44 53.0804C71.63 54.0704 70.6 54.8504 69.7 54.4004L55.7 47.3704" stroke="#2B388C" stroke-width="3" stroke-miterlimit="10" stroke-linejoin="round"/><path fill="#fff" d="M68.04 17.2096L74.88 2.20957C75.31 1.25957 76.66 1.25957 77.09 2.20957L83.93 17.2096L99.61 18.6096C100.64 18.6996 101.09 19.9496 100.36 20.6796L88.83 32.0996L91.72 46.9896C91.91 47.9796 90.88 48.7596 89.98 48.3096L75.98 41.2796" stroke="#2B388C" stroke-width="3" stroke-miterlimit="10" stroke-linejoin="round"/></svg>