<svg width="80" height="89" viewBox="0 0 80 89" fill="none" xmlns="http://www.w3.org/2000/svg"><path d="M72.7395 31.9797L54.7396 16.6897C54.2896 16.3097 53.6696 16.1997 53.1096 16.3997C53.1096 16.3997 44.0096 19.7197 43.9896 19.7297C42.4896 12.5397 43.3196 7.00968 44.8596 4.64968C45.3496 3.89968 45.8995 3.45968 46.4995 3.34968C49.4595 2.76968 52.4695 5.80968 54.5495 11.4497C54.8595 12.2997 55.8095 12.7397 56.6595 12.4197C57.5095 12.1097 57.9496 11.1597 57.6296 10.3097C54.9496 3.03968 50.5596 -0.760317 45.8796 0.129683C44.3896 0.409683 43.0896 1.35968 42.1096 2.85968C39.6596 6.60968 39.2296 13.6597 40.9696 21.2497C42.1596 26.4497 44.1096 30.8697 46.3796 33.9697C45.3096 36.7697 46.0195 40.1497 48.5095 42.2697C51.6895 44.9697 56.3096 44.5297 58.9496 41.4197C61.5896 38.3097 61.2095 33.5997 58.0995 30.9597C55.2895 28.5697 51.1396 28.6197 48.3796 31.0697C47.0196 28.9397 45.7395 26.1397 44.7795 22.8797C44.9095 22.8697 53.3296 19.8097 53.3296 19.8097L69.8696 33.8597L66.8696 49.6797L41.1296 79.9797C38.0996 83.5497 32.7295 83.9897 29.1595 80.9497L13.4495 67.5997C9.86955 64.5597 9.43955 59.1997 12.4795 55.6297L38.4995 24.9997C39.0895 24.3097 38.9996 23.2697 38.3096 22.6897C37.6196 22.0997 36.5795 22.1897 35.9995 22.8797L9.96955 53.4997C5.75955 58.4597 6.35955 65.8897 11.3195 70.0997L27.0396 83.4497C31.9996 87.6597 39.4395 87.0397 43.6395 82.0997L69.6596 51.4697C69.8396 51.2497 69.9695 50.9897 70.0195 50.7097L73.2795 33.5297C73.3895 32.9597 73.1795 32.3597 72.7395 31.9797ZM55.9795 33.4597C57.7095 34.9297 57.9196 37.5397 56.4496 39.2697C54.9696 41.0097 52.3596 41.2097 50.6296 39.7397C49.7996 39.0397 49.2996 38.0597 49.1996 36.9797C50.6496 38.1397 52.1695 38.6097 53.6395 38.7797C55.1695 38.9497 56.0696 37.6597 55.8996 36.7697C55.7296 35.8797 54.8795 35.4897 53.9795 35.4697C52.4295 35.4397 51.1296 34.9197 50.3996 33.6697C51.9196 32.1697 54.3395 32.0697 55.9795 33.4597Z" fill="#2B388C"/><path d="M30.53 56.6597C27.5 56.6597 25.04 54.1997 25.04 51.1697C25.04 48.1397 27.5 45.6797 30.53 45.6797C33.56 45.6797 36.02 48.1397 36.02 51.1697C36.03 54.1997 33.56 56.6597 30.53 56.6597ZM30.53 48.9597C29.31 48.9597 28.32 49.9497 28.32 51.1697C28.32 52.3897 29.31 53.3797 30.53 53.3797C31.75 53.3797 32.74 52.3897 32.74 51.1697C32.74 49.9497 31.75 48.9597 30.53 48.9597Z" fill="#2B388C"/><path d="M44.6599 67.5698C41.6299 67.5698 39.1699 65.1098 39.1699 62.0798C39.1699 59.0498 41.6299 56.5898 44.6599 56.5898C47.6899 56.5898 50.1499 59.0498 50.1499 62.0798C50.1499 65.1098 47.6799 67.5698 44.6599 67.5698ZM44.6599 59.8698C43.4399 59.8698 42.4499 60.8598 42.4499 62.0798C42.4499 63.2998 43.4399 64.2898 44.6599 64.2898C45.8799 64.2898 46.8699 63.2998 46.8699 62.0798C46.8599 60.8598 45.8699 59.8698 44.6599 59.8698Z" fill="#2B388C"/><path d="M26.7604 66.4104C26.1404 65.7504 26.1804 64.7104 26.8404 64.0904L45.4504 46.7604C46.1104 46.1404 47.1504 46.1804 47.7704 46.8404C48.3904 47.5004 48.3504 48.5404 47.6904 49.1604L29.0904 66.4904C28.4204 67.1104 27.3804 67.0704 26.7604 66.4104Z" fill="#2B388C"/><path d="M16.6796 33.3596L8.17961 27.4596C7.43961 26.9396 7.24961 25.9196 7.76961 25.1696C8.28961 24.4196 9.30961 24.2396 10.0596 24.7596L18.5596 30.6596C19.2996 31.1796 19.4896 32.1996 18.9696 32.9496C18.4496 33.6896 17.4196 33.8796 16.6796 33.3596Z" fill="#2B388C"/><path d="M20.9002 26.37L15.0102 16.31C14.5502 15.53 14.8102 14.52 15.6002 14.06C16.3802 13.6 17.3902 13.86 17.8502 14.65L23.7402 24.71C24.2002 25.49 23.9302 26.5 23.1502 26.96C22.3602 27.41 21.3602 27.15 20.9002 26.37Z" fill="#2B388C"/><path d="M12.8601 40.4298L1.36005 38.4598C0.470053 38.3098 -0.129947 37.4598 0.0200529 36.5598C0.170053 35.6698 1.02005 35.0598 1.92005 35.2198L13.4101 37.1898C14.3001 37.3398 14.9001 38.1898 14.7501 39.0898C14.6001 39.9798 13.7501 40.5798 12.8601 40.4298Z" fill="#2B388C"/><path d="M68.4001 78.6204L61.2201 72.5604C60.5301 71.9704 60.4401 70.9404 61.0201 70.2504C61.6101 69.5604 62.6401 69.4704 63.3301 70.0504L70.5101 76.1104C71.2001 76.7004 71.2901 77.7304 70.7001 78.4204C70.1301 79.1104 69.1001 79.2004 68.4001 78.6204Z" fill="#2B388C"/><path d="M77.4595 69.1303L66.9595 66.6903C66.0795 66.4903 65.5295 65.6003 65.7295 64.7203C65.9395 63.8403 66.8195 63.2903 67.6995 63.4903L78.1995 65.9303C79.0795 66.1403 79.6295 67.0203 79.4295 67.9003C79.2295 68.7803 78.3495 69.3403 77.4595 69.1303Z" fill="#2B388C"/><path d="M59.5197 87.9897L55.3797 78.0297C55.0297 77.1897 55.4297 76.2297 56.2697 75.8797C57.1097 75.5297 58.0697 75.9297 58.4197 76.7697L62.5597 86.7197C62.9097 87.5597 62.5097 88.5197 61.6697 88.8697C60.8297 89.2197 59.8697 88.8197 59.5197 87.9897Z" fill="#2B388C"/><defs><clipPath id="clip0"><path fill="#fff" d="M0 0H79.47V89H0z"/></clipPath></defs></svg>