<svg width="79" height="72" viewBox="0 0 79 72" fill="none" xmlns="http://www.w3.org/2000/svg"><path d="M65.8255 16.29V3H3.10547V69H65.8155V57.36H68.8155V72H0.105469C0.105469 48 0.105469 24 0.105469 0H68.8155V16.29H65.8255Z" fill="#2B388C"/><path d="M67.3255 9.86035H1.60547V12.8604H67.3255V9.86035Z" fill="#2B388C"/><path d="M9.82516 4.92969H6.53516V7.92969H9.82516V4.92969Z" fill="#2B388C"/><path d="M16.3955 4.92969H13.1055V7.92969H16.3955V4.92969Z" fill="#2B388C"/><path d="M22.9658 4.92969H19.6758V7.92969H22.9658V4.92969Z" fill="#2B388C"/><path d="M70.6059 21.0703H32.8259C31.4559 21.0703 30.2159 21.6103 29.3059 22.4903L29.2459 22.5603C28.3259 23.4803 27.7659 24.7503 27.7659 26.1503V47.5003C27.7659 48.9003 28.3359 50.1703 29.2459 51.0903C30.1659 52.0103 31.4359 52.5703 32.8359 52.5703H34.4759C35.3059 52.5703 35.9759 53.2403 35.9759 54.0703V61.6003C35.9759 61.6403 35.9859 61.6803 36.0059 61.7003L36.0459 61.7303L36.0659 61.7403C36.0859 61.7503 36.1059 61.7503 36.1359 61.7503C36.1659 61.7503 36.1959 61.7403 36.2259 61.7003L44.9059 53.0203C45.1759 52.7403 45.5559 52.5603 45.9859 52.5603H70.6059C72.0059 52.5603 73.2759 51.9903 74.1959 51.0703C75.1159 50.1503 75.6859 48.8803 75.6859 47.4803V26.1403C75.6859 24.7403 75.1159 23.4703 74.1959 22.5503C73.2759 21.6403 72.0059 21.0703 70.6059 21.0703ZM32.8259 18.0703H70.6059C72.8359 18.0703 74.8559 18.9703 76.3159 20.4303C77.7759 21.8903 78.6759 23.9103 78.6759 26.1403V47.5003C78.6759 49.7303 77.7759 51.7503 76.3159 53.2103C74.8559 54.6703 72.8359 55.5703 70.6059 55.5703H46.5859L38.3259 63.8303C37.6859 64.4703 36.8959 64.7503 36.1159 64.7503C35.7059 64.7503 35.2859 64.6603 34.9059 64.5003L34.8059 64.4503C34.4559 64.2903 34.1459 64.0803 33.8759 63.8103C33.3259 63.2603 32.9659 62.5003 32.9659 61.5903V55.5603H32.8259C30.6059 55.5603 28.5859 54.6603 27.1259 53.2003H27.1159C25.6559 51.7403 24.7559 49.7203 24.7559 47.4903V26.1403C24.7559 23.9103 25.6559 21.8903 27.1159 20.4303L27.2059 20.3503C28.6559 18.9403 30.6459 18.0703 32.8259 18.0703Z" fill="#2B388C"/><path d="M54.5751 33.6001L52.5351 29.0901L50.4951 33.6001C50.2751 34.0701 49.8251 34.4201 49.2651 34.4701L44.3951 34.9301L48.0351 38.6701C48.4051 39.0101 48.6051 39.5301 48.4951 40.0701L47.5551 44.9101L51.8651 42.7301C52.2751 42.5301 52.7651 42.5101 53.2051 42.7201L57.5251 44.8501L56.5851 40.1001C56.4951 39.6301 56.6251 39.1401 56.9851 38.7701L60.6951 34.9501L55.9151 34.5001C55.3451 34.4701 54.8151 34.1401 54.5751 33.6001ZM53.9051 24.8401L56.9551 31.5801L64.0651 32.2401C64.8851 32.3101 65.4951 33.0401 65.4151 33.8601C65.3851 34.2201 65.2251 34.5301 64.9951 34.7701L59.6651 40.2701L61.0451 47.2301C61.2051 48.0401 60.6751 48.8301 59.8651 48.9901C59.5051 49.0601 59.1451 48.9901 58.8451 48.8301L52.5451 45.7301L46.1751 48.9601C45.4351 49.3301 44.5351 49.0401 44.1651 48.3001C44.0051 47.9901 43.9751 47.6501 44.0351 47.3401L45.4151 40.2601L40.0851 34.7801C39.5051 34.1901 39.5251 33.2401 40.1151 32.6601C40.3851 32.4001 40.7351 32.2601 41.0851 32.2401L48.1351 31.5801L51.1851 24.8401C51.5251 24.0901 52.4151 23.7501 53.1651 24.0901C53.4951 24.2501 53.7551 24.5201 53.9051 24.8401Z" fill="#2B388C"/><defs><clipPath id="clip0"><path fill="#fff" transform="translate(.105)" d="M0 0H78.57V72H0z"/></clipPath></defs></svg>