<svg width="88" height="88" viewBox="0 0 88 88" fill="none" xmlns="http://www.w3.org/2000/svg"><path d="M22.3701 64.3696C23.0801 64.3696 23.6501 63.7996 23.6501 63.0896C23.6501 62.3796 23.0801 61.8096 22.3701 61.8096H20.9001C20.1901 61.8096 19.6201 62.3796 19.6201 63.0896V77.0096C19.6201 77.7196 20.1901 78.2896 20.9001 78.2896H22.3801C23.0901 78.2896 23.6601 77.7196 23.6601 77.0096C23.6601 76.2996 23.0901 75.7296 22.3801 75.7296H22.1801V64.3696H22.3701Z" fill="#2B388C"/><path d="M31.2297 64.3696C31.9397 64.3696 32.5097 63.7996 32.5097 63.0896C32.5097 62.3796 31.9397 61.8096 31.2297 61.8096H29.7497C29.0397 61.8096 28.4697 62.3796 28.4697 63.0896V77.0096C28.4697 77.7196 29.0397 78.2896 29.7497 78.2896H31.2297C31.9397 78.2896 32.5097 77.7196 32.5097 77.0096C32.5097 76.2996 31.9397 75.7296 31.2297 75.7296H31.0297V64.3696H31.2297Z" fill="#2B388C"/><path d="M40.0901 64.3696C40.8001 64.3696 41.3701 63.7996 41.3701 63.0896C41.3701 62.3796 40.8001 61.8096 40.0901 61.8096H38.6101C37.9001 61.8096 37.3301 62.3796 37.3301 63.0896V77.0096C37.3301 77.7196 37.9001 78.2896 38.6101 78.2896H40.0901C40.8001 78.2896 41.3701 77.7196 41.3701 77.0096C41.3701 76.2996 40.8001 75.7296 40.0901 75.7296H39.8901V64.3696H40.0901Z" fill="#2B388C"/><path d="M48.9397 64.3696C49.6497 64.3696 50.2197 63.7996 50.2197 63.0896C50.2197 62.3796 49.6497 61.8096 48.9397 61.8096H47.4597C46.7497 61.8096 46.1797 62.3796 46.1797 63.0896V77.0096C46.1797 77.7196 46.7497 78.2896 47.4597 78.2896H48.9397C49.6497 78.2896 50.2197 77.7196 50.2197 77.0096C50.2197 76.2996 49.6497 75.7296 48.9397 75.7296H48.7397V64.3696H48.9397Z" fill="#2B388C"/><path d="M57.8 64.3696C58.51 64.3696 59.08 63.7996 59.08 63.0896C59.08 62.3796 58.51 61.8096 57.8 61.8096H56.32C55.61 61.8096 55.04 62.3796 55.04 63.0896V77.0096C55.04 77.7196 55.61 78.2896 56.32 78.2896H57.8C58.51 78.2896 59.08 77.7196 59.08 77.0096C59.08 76.2996 58.51 75.7296 57.8 75.7296H57.6V64.3696H57.8Z" fill="#2B388C"/><path d="M66.6604 64.3696C67.3704 64.3696 67.9404 63.7996 67.9404 63.0896C67.9404 62.3796 67.3704 61.8096 66.6604 61.8096H65.1804C64.4704 61.8096 63.9004 62.3796 63.9004 63.0896V77.0096C63.9004 77.7196 64.4704 78.2896 65.1804 78.2896H66.6604C67.3704 78.2896 67.9404 77.7196 67.9404 77.0096C67.9404 76.2996 67.3704 75.7296 66.6604 75.7296H66.4604V64.3696H66.6604Z" fill="#2B388C"/><path d="M22.3701 29.6401C23.0801 29.6401 23.6501 29.0701 23.6501 28.3601C23.6501 27.6501 23.0801 27.0801 22.3701 27.0801H20.9001C20.1901 27.0801 19.6201 27.6501 19.6201 28.3601V42.2801C19.6201 42.9901 20.1901 43.5601 20.9001 43.5601H22.3801C23.0901 43.5601 23.6601 42.9901 23.6601 42.2801C23.6601 41.5701 23.0901 41.0001 22.3801 41.0001H22.1801V29.6401H22.3701Z" fill="#2B388C"/><path d="M31.2297 29.6401C31.9397 29.6401 32.5097 29.0701 32.5097 28.3601C32.5097 27.6501 31.9397 27.0801 31.2297 27.0801H29.7497C29.0397 27.0801 28.4697 27.6501 28.4697 28.3601V42.2801C28.4697 42.9901 29.0397 43.5601 29.7497 43.5601H31.2297C31.9397 43.5601 32.5097 42.9901 32.5097 42.2801C32.5097 41.5701 31.9397 41.0001 31.2297 41.0001H31.0297V29.6401H31.2297Z" fill="#2B388C"/><path d="M40.0901 29.6401C40.8001 29.6401 41.3701 29.0701 41.3701 28.3601C41.3701 27.6501 40.8001 27.0801 40.0901 27.0801H38.6101C37.9001 27.0801 37.3301 27.6501 37.3301 28.3601V42.2801C37.3301 42.9901 37.9001 43.5601 38.6101 43.5601H40.0901C40.8001 43.5601 41.3701 42.9901 41.3701 42.2801C41.3701 41.5701 40.8001 41.0001 40.0901 41.0001H39.8901V29.6401H40.0901Z" fill="#2B388C"/><path d="M48.9397 29.6401C49.6497 29.6401 50.2197 29.0701 50.2197 28.3601C50.2197 27.6501 49.6497 27.0801 48.9397 27.0801H47.4597C46.7497 27.0801 46.1797 27.6501 46.1797 28.3601V42.2801C46.1797 42.9901 46.7497 43.5601 47.4597 43.5601H48.9397C49.6497 43.5601 50.2197 42.9901 50.2197 42.2801C50.2197 41.5701 49.6497 41.0001 48.9397 41.0001H48.7397V29.6401H48.9397Z" fill="#2B388C"/><path d="M57.8 29.6401C58.51 29.6401 59.08 29.0701 59.08 28.3601C59.08 27.6501 58.51 27.0801 57.8 27.0801H56.32C55.61 27.0801 55.04 27.6501 55.04 28.3601V42.2801C55.04 42.9901 55.61 43.5601 56.32 43.5601H57.8C58.51 43.5601 59.08 42.9901 59.08 42.2801C59.08 41.5701 58.51 41.0001 57.8 41.0001H57.6V29.6401H57.8Z" fill="#2B388C"/><path d="M66.6604 29.6401C67.3704 29.6401 67.9404 29.0701 67.9404 28.3601C67.9404 27.6501 67.3704 27.0801 66.6604 27.0801H65.1804C64.4704 27.0801 63.9004 27.6501 63.9004 28.3601V42.2801C63.9004 42.9901 64.4704 43.5601 65.1804 43.5601H66.6604C67.3704 43.5601 67.9404 42.9901 67.9404 42.2801C67.9404 41.5701 67.3704 41.0001 66.6604 41.0001H66.4604V29.6401H66.6604Z" fill="#2B388C"/><path d="M73.1 82.7497V84.9897H14.45V82.7497H73.1ZM86.27 84.9897H75.66V58.4997C75.66 57.7897 75.09 57.2197 74.38 57.2197H13.17C12.46 57.2197 11.89 57.7897 11.89 58.4997V67.4197C11.89 68.1297 12.46 68.6997 13.17 68.6997C13.88 68.6997 14.45 68.1297 14.45 67.4197V59.7797H73.1V80.1897H14.45V72.5497C14.45 71.8397 13.88 71.2697 13.17 71.2697C12.46 71.2697 11.89 71.8397 11.89 72.5497V84.9897H1.28C0.57 84.9897 0 85.5597 0 86.2697C0 86.9797 0.57 87.5497 1.28 87.5497H86.27C86.98 87.5497 87.55 86.9797 87.55 86.2697C87.55 85.5597 86.98 84.9897 86.27 84.9897Z" fill="#2B388C"/><path d="M14.4496 25.04H30.4296C31.1396 25.04 31.7096 24.47 31.7096 23.76C31.7096 23.05 31.1396 22.48 30.4296 22.48H22.8996L41.3297 14.04C41.9797 14.55 42.8096 14.85 43.6996 14.85C44.6196 14.85 45.4596 14.53 46.1196 13.99L64.6497 22.48H35.5597C34.8497 22.48 34.2796 23.05 34.2796 23.76C34.2796 24.47 34.8497 25.04 35.5597 25.04H73.0996V45.45H14.4496V25.04ZM39.2096 2.57H48.3396V3.97H39.2096V2.57ZM13.1696 52.82H60.7896C61.4996 52.82 62.0696 52.25 62.0696 51.54C62.0696 50.83 61.4996 50.26 60.7896 50.26H14.4496V48.02H73.0996V50.26H65.9196C65.2096 50.26 64.6396 50.83 64.6396 51.54C64.6396 52.25 65.2096 52.82 65.9196 52.82H74.3796C75.0896 52.82 75.6597 52.25 75.6597 51.54V23.76C75.6597 23.05 75.0896 22.48 74.3796 22.48H70.8096L47.4796 11.79C47.5396 11.53 47.5696 11.26 47.5696 10.98C47.5696 10.27 46.9996 9.7 46.2896 9.7C45.6896 9.7 45.1796 10.12 45.0496 10.68L44.3196 10.34C43.9796 10.18 43.5896 10.18 43.2496 10.34L42.4396 10.71C42.5696 10.12 43.0896 9.68 43.7096 9.68C44.4196 9.68 44.9897 9.11 44.9897 8.4V6.53H48.8997C50.0097 6.53 50.9096 5.63 50.9096 4.52V2.02C50.9096 0.9 50.0097 0 48.8997 0H38.6596C37.5496 0 36.6497 0.9 36.6497 2.01V4.51C36.6497 5.62 37.5496 6.52 38.6596 6.52H42.4196V7.33C40.9196 7.86 39.8396 9.29 39.8396 10.98C39.8396 11.28 39.8796 11.57 39.9396 11.85L16.7396 22.48H13.1696C12.4596 22.48 11.8896 23.05 11.8896 23.76V51.54C11.8896 52.25 12.4596 52.82 13.1696 52.82Z" fill="#2B388C"/><defs><clipPath id="clip0"><path fill="#fff" d="M0 0H87.55V87.55H0z"/></clipPath></defs></svg>