<svg width="48" height="49" viewBox="0 0 48 49" fill="none" xmlns="http://www.w3.org/2000/svg"><path d="M24.3298 48.74C11.1398 48.97 0.229784 38.43 -0.000215868 25.25C-0.230216 12.06 10.3198 1.15001 23.4998 0.920015C36.6798 0.690015 47.5998 11.23 47.8298 24.42C48.0598 37.6 37.5198 48.52 24.3298 48.74ZM23.5398 2.83001C11.3998 3.04001 1.70978 13.08 1.91978 25.21C2.12978 37.34 12.1698 47.04 24.2998 46.83C36.4298 46.62 46.1298 36.58 45.9198 24.45C45.6998 12.32 35.6598 2.62001 23.5398 2.83001Z" fill="#fff"/><path d="M25.2804 18.36C25.3604 18.27 25.6404 18.08 26.4804 18.06C26.9404 18.05 27.4504 18.09 27.9804 18.17L28.8004 18.3L29.4404 14.32L28.6204 14.18C25.9804 13.73 23.8704 13.94 22.6004 14.78C21.7904 15.32 21.2104 16.04 20.8904 16.91C20.6704 17.53 20.5704 18.4 20.5904 19.57L20.6004 20.41L18.1504 20.45L18.2204 24.21L20.6704 24.17L20.8704 35.74L25.3104 35.66L25.1104 24.09L28.3004 24.03L28.2404 20.27L25.0504 20.33L25.0404 19.71C25.0104 18.69 25.2304 18.41 25.2804 18.36Z" fill="#fff"/></svg>