<svg width="48" height="49" viewBox="0 0 48 49" fill="none" xmlns="http://www.w3.org/2000/svg"><path d="M24.0001 48.29C10.8101 48.29 0.0800781 37.56 0.0800781 24.37C0.0800781 11.18 10.8101 0.450012 24.0001 0.450012C37.1901 0.450012 47.9201 11.18 47.9201 24.37C47.9201 37.56 37.1901 48.29 24.0001 48.29ZM24.0001 2.37001C11.8701 2.37001 2.00008 12.24 2.00008 24.37C2.00008 36.5 11.8701 46.37 24.0001 46.37C36.1301 46.37 46.0001 36.5 46.0001 24.37C46.0001 12.24 36.1301 2.37001 24.0001 2.37001Z" fill="#fff"/><path d="M29.6303 15.7H18.3803C16.2803 15.7 14.5703 17.41 14.5703 19.51V30.21C14.5703 32.31 16.2803 34.02 18.3803 34.02H29.6303C31.7303 34.02 33.4403 32.31 33.4403 30.21V19.51C33.4403 17.41 31.7303 15.7 29.6303 15.7ZM31.7703 30.2C31.7703 31.38 30.8103 32.34 29.6303 32.34H18.3803C17.2003 32.34 16.2403 31.38 16.2403 30.2V19.5C16.2403 18.32 17.2003 17.36 18.3803 17.36H29.6303C30.8103 17.36 31.7703 18.32 31.7703 19.5V30.2Z" fill="#fff"/><path d="M23.9999 19.74C21.1799 19.74 18.8799 22.04 18.8799 24.86C18.8799 27.68 21.1799 29.98 23.9999 29.98C26.8199 29.98 29.1199 27.68 29.1199 24.86C29.1199 22.03 26.8199 19.74 23.9999 19.74ZM23.9999 28.31C22.0999 28.31 20.5399 26.76 20.5399 24.86C20.5399 22.95 22.0899 21.4 23.9999 21.4C25.9099 21.4 27.4499 22.95 27.4499 24.86C27.4499 26.76 25.8999 28.31 23.9999 28.31Z" fill="#fff"/><path d="M29.0897 18.69C28.6097 18.69 28.2197 19.08 28.2197 19.56C28.2197 20.04 28.6097 20.43 29.0897 20.43C29.5697 20.43 29.9597 20.04 29.9597 19.56C29.9597 19.08 29.5697 18.69 29.0897 18.69Z" fill="#fff"/></svg>