<svg width="445" height="59" viewBox="0 0 445 59" fill="none" xmlns="http://www.w3.org/2000/svg"><path d="M386.36 58.7597C353.61 58.7597 327.95 45.9197 327.95 29.5197C327.95 13.1197 353.61 0.279663 386.36 0.279663C419.11 0.279663 444.76 13.1197 444.76 29.5197C444.77 45.9097 419.11 58.7597 386.36 58.7597ZM386.36 4.57966C357.03 4.57966 332.26 15.9997 332.26 29.5197C332.26 43.0397 357.04 54.4597 386.36 54.4597C415.68 54.4597 440.46 43.0397 440.46 29.5197C440.46 15.9997 415.69 4.57966 386.36 4.57966Z" fill="#E61C23"/><path d="M354.3 45.9597V20.4297H347.13L351.05 12.8497H362.61V45.9597H354.3Z" fill="#E61C23"/><path d="M382.77 24.6297C383.3 24.4597 383.86 24.3397 384.44 24.2497C385.02 24.1697 385.62 24.1197 386.26 24.1197C389.09 24.1197 391.43 25.1097 393.29 27.0997C395.14 29.0797 396.07 31.6097 396.07 34.6697C396.07 38.3597 394.91 41.2997 392.59 43.5197C390.27 45.7397 387.16 46.8397 383.26 46.8397C379.38 46.8397 376.3 45.7397 374.01 43.5497C371.73 41.3597 370.58 38.4097 370.58 34.7197C370.58 32.8197 370.96 30.8597 371.73 28.8497C372.5 26.8397 374.11 23.9197 376.56 20.0797L381.25 12.8397H390.56L382.77 24.6297ZM383.18 29.9797C381.64 29.9797 380.4 30.4397 379.49 31.3597C378.58 32.2797 378.14 33.5297 378.14 35.1097C378.14 36.6797 378.59 37.9197 379.49 38.8297C380.4 39.7497 381.63 40.1997 383.18 40.1997C384.74 40.1997 385.97 39.7397 386.87 38.8297C387.77 37.9197 388.23 36.6797 388.23 35.1097C388.23 33.5297 387.77 32.2697 386.87 31.3597C385.97 30.4397 384.74 29.9797 383.18 29.9797Z" fill="#E61C23"/><path d="M418.72 28.0996C420.9 28.4996 422.59 29.4496 423.79 30.9696C424.99 32.4896 425.59 34.4196 425.59 36.7596C425.59 39.9196 424.47 42.3996 422.22 44.1796C419.97 45.9596 416.85 46.8496 412.82 46.8496C408.82 46.8496 405.7 45.9596 403.46 44.1796C401.22 42.3996 400.11 39.9196 400.11 36.7596C400.11 34.4096 400.71 32.4796 401.92 30.9696C403.12 29.4496 404.81 28.4996 406.99 28.0996C405.22 27.6796 403.86 26.8596 402.9 25.6696C401.93 24.4796 401.46 22.9996 401.46 21.2296C401.46 18.3796 402.47 16.1596 404.46 14.5796C406.47 12.9896 409.26 12.1896 412.83 12.1896C416.42 12.1896 419.23 12.9896 421.23 14.5796C423.24 16.1796 424.24 18.3896 424.24 21.2296C424.24 22.9996 423.76 24.4796 422.8 25.6696C421.85 26.8696 420.49 27.6796 418.72 28.0996ZM412.83 40.1596C414.26 40.1596 415.39 39.7596 416.22 38.9696C417.05 38.1796 417.46 37.0896 417.46 35.7096C417.46 34.3496 417.05 33.2896 416.22 32.4996C415.39 31.7196 414.26 31.3296 412.83 31.3296C411.41 31.3296 410.3 31.7196 409.48 32.4996C408.66 33.2896 408.25 34.3496 408.25 35.7096C408.25 37.0796 408.66 38.1596 409.49 38.9596C410.32 39.7596 411.43 40.1596 412.83 40.1596ZM412.83 25.3796C414.05 25.3796 415.01 25.0396 415.73 24.3496C416.44 23.6696 416.8 22.7296 416.8 21.5396C416.8 20.3496 416.45 19.4196 415.75 18.7496C415.05 18.0796 414.07 17.7396 412.83 17.7396C411.61 17.7396 410.66 18.0796 409.95 18.7596C409.25 19.4296 408.9 20.3596 408.9 21.5296C408.9 22.6996 409.25 23.6296 409.97 24.3296C410.67 25.0396 411.63 25.3796 412.83 25.3796Z" fill="#E61C23"/><path d="M37 46.2597H29.72L27.25 40.8997H11.11L8.65001 46.2597H1.76001L17.7 12.4597H21.08L37 46.2597ZM24.67 35.1797L19.21 23.4097L13.71 35.1797H24.67Z" fill="#2B388C"/><path d="M37 46.2597H29.72L27.25 40.8997H11.11L8.65001 46.2597H1.76001L17.7 12.4597H21.08L37 46.2597ZM24.67 35.1797L19.21 23.4097L13.71 35.1797H24.67Z" stroke="#2B388C" stroke-width="1.03" stroke-miterlimit="10"/><path d="M68.84 43.4697C64.62 45.7697 60.15 46.9297 55.39 46.9297C50.37 46.9297 46.19 45.2797 42.86 41.9697C39.53 38.6597 37.87 34.4797 37.87 29.4297C37.87 24.4797 39.59 20.3597 43.03 17.0597C46.48 13.7697 50.84 12.1197 56.1 12.1197C60.28 12.1197 64.07 13.1397 67.48 15.1797L64.35 20.7997C61.68 19.0397 58.9 18.1597 56.01 18.1597C52.66 18.1597 49.94 19.2297 47.88 21.3797C45.82 23.5297 44.78 26.2297 44.78 29.4797C44.78 32.8897 45.77 35.6297 47.77 37.7197C49.76 39.8097 52.39 40.8597 55.64 40.8597C57.95 40.8597 60.12 40.4197 62.13 39.5397V33.9197H52.73L56.16 28.0197H68.85V43.4697H68.84Z" fill="#2B388C"/><path d="M68.84 43.4697C64.62 45.7697 60.15 46.9297 55.39 46.9297C50.37 46.9297 46.19 45.2797 42.86 41.9697C39.53 38.6597 37.87 34.4797 37.87 29.4297C37.87 24.4797 39.59 20.3597 43.03 17.0597C46.48 13.7697 50.84 12.1197 56.1 12.1197C60.28 12.1197 64.07 13.1397 67.48 15.1797L64.35 20.7997C61.68 19.0397 58.9 18.1597 56.01 18.1597C52.66 18.1597 49.94 19.2297 47.88 21.3797C45.82 23.5297 44.78 26.2297 44.78 29.4797C44.78 32.8897 45.77 35.6297 47.77 37.7197C49.76 39.8097 52.39 40.8597 55.64 40.8597C57.95 40.8597 60.12 40.4197 62.13 39.5397V33.9197H52.73L56.16 28.0197H68.85V43.4697H68.84Z" stroke="#2B388C" stroke-width="1.03" stroke-miterlimit="10"/><path d="M101.63 46.2596H94.05L86.11 34.1196H82.23V46.2596H75.5V12.7496H85.57C89.84 12.7496 93.12 13.6696 95.39 15.4996C97.66 17.3196 98.79 19.9096 98.79 23.2796C98.79 25.4996 98.22 27.4796 97.08 29.2196C95.94 30.9596 94.43 32.1596 92.55 32.8196L101.63 46.2596ZM82.24 28.4696H84.17C86.95 28.4696 88.94 28.0796 90.16 27.2996C91.39 26.5196 91.99 25.2596 91.99 23.4996C91.99 21.6996 91.43 20.4096 90.3 19.6596C89.17 18.8996 87.39 18.5196 84.95 18.5196H82.23V28.4696H82.24Z" fill="#2B388C"/><path d="M101.63 46.2596H94.05L86.11 34.1196H82.23V46.2596H75.5V12.7496H85.57C89.84 12.7496 93.12 13.6696 95.39 15.4996C97.66 17.3196 98.79 19.9096 98.79 23.2796C98.79 25.4996 98.22 27.4796 97.08 29.2196C95.94 30.9596 94.43 32.1596 92.55 32.8196L101.63 46.2596ZM82.24 28.4696H84.17C86.95 28.4696 88.94 28.0796 90.16 27.2996C91.39 26.5196 91.99 25.2596 91.99 23.4996C91.99 21.6996 91.43 20.4096 90.3 19.6596C89.17 18.8996 87.39 18.5196 84.95 18.5196H82.23V28.4696H82.24Z" stroke="#2B388C" stroke-width="1.03" stroke-miterlimit="10"/><path d="M120.83 12.1096C125.78 12.1096 129.97 13.7797 133.39 17.1297C136.81 20.4797 138.52 24.5896 138.52 29.4796C138.52 34.3996 136.82 38.5397 133.41 41.8897C130 45.2397 125.81 46.9197 120.82 46.9197C115.87 46.9197 111.69 45.2396 108.28 41.8696C104.86 38.5096 103.15 34.3697 103.15 29.4697C103.15 24.5797 104.86 20.4697 108.28 17.1197C111.7 13.7797 115.88 12.1096 120.83 12.1096ZM120.83 40.8597C124.01 40.8597 126.6 39.7797 128.61 37.6097C130.62 35.4497 131.62 32.7296 131.62 29.4796C131.62 26.2396 130.62 23.5397 128.61 21.3797C126.6 19.2297 124.01 18.1497 120.83 18.1497C117.67 18.1497 115.09 19.2297 113.09 21.3797C111.08 23.5397 110.07 26.2396 110.07 29.4796C110.07 32.7196 111.07 35.4297 113.05 37.5997C115.03 39.7697 117.62 40.8597 120.83 40.8597Z" fill="#2B388C"/><path d="M120.83 12.1096C125.78 12.1096 129.97 13.7797 133.39 17.1297C136.81 20.4797 138.52 24.5896 138.52 29.4796C138.52 34.3996 136.82 38.5397 133.41 41.8897C130 45.2397 125.81 46.9197 120.82 46.9197C115.87 46.9197 111.69 45.2396 108.28 41.8696C104.86 38.5096 103.15 34.3697 103.15 29.4697C103.15 24.5797 104.86 20.4697 108.28 17.1197C111.7 13.7797 115.88 12.1096 120.83 12.1096ZM120.83 40.8597C124.01 40.8597 126.6 39.7797 128.61 37.6097C130.62 35.4497 131.62 32.7296 131.62 29.4796C131.62 26.2396 130.62 23.5397 128.61 21.3797C126.6 19.2297 124.01 18.1497 120.83 18.1497C117.67 18.1497 115.09 19.2297 113.09 21.3797C111.08 23.5397 110.07 26.2396 110.07 29.4796C110.07 32.7196 111.07 35.4297 113.05 37.5997C115.03 39.7697 117.62 40.8597 120.83 40.8597Z" stroke="#2B388C" stroke-width="1.03" stroke-miterlimit="10"/><path d="M166.38 46.2596H143.68V12.7496H165.99L162.53 18.6196H150.42V26.2496H161.42V32.1196H150.42V40.3896H163L166.38 46.2596Z" fill="#2B388C"/><path d="M166.38 46.2596H143.68V12.7496H165.99L162.53 18.6196H150.42V26.2496H161.42V32.1196H150.42V40.3896H163L166.38 46.2596Z" stroke="#2B388C" stroke-width="1.03" stroke-miterlimit="10"/><path d="M200.43 46.2596H192.68L184 33.7196L175.12 46.2596H167.59L180.27 28.9896L168.7 12.7496H176.47L184.2 23.9796L192.19 12.7496H199.66L187.89 28.7596L200.43 46.2596Z" fill="#2B388C"/><path d="M200.43 46.2596H192.68L184 33.7196L175.12 46.2596H167.59L180.27 28.9896L168.7 12.7496H176.47L184.2 23.9796L192.19 12.7496H199.66L187.89 28.7596L200.43 46.2596Z" stroke="#2B388C" stroke-width="1.03" stroke-miterlimit="10"/><path d="M204.6 12.7496H214.91C219.27 12.7496 222.59 13.6696 224.88 15.4996C227.17 17.3196 228.31 19.9796 228.31 23.4696C228.31 27.0096 227.06 29.6896 224.57 31.5096C222.08 33.3396 218.55 34.2496 214 34.2496H211.34V46.2696H204.6V12.7496ZM211.34 28.4696H213.41C216.37 28.4696 218.44 28.0596 219.61 27.2596C220.79 26.4496 221.37 25.1996 221.37 23.4996C221.37 21.7796 220.83 20.5296 219.73 19.7696C218.63 19.0096 216.66 18.6196 213.79 18.6196H211.33V28.4696H211.34Z" fill="#2B388C"/><path d="M204.6 12.7496H214.91C219.27 12.7496 222.59 13.6696 224.88 15.4996C227.17 17.3196 228.31 19.9796 228.31 23.4696C228.31 27.0096 227.06 29.6896 224.57 31.5096C222.08 33.3396 218.55 34.2496 214 34.2496H211.34V46.2696H204.6V12.7496ZM211.34 28.4696H213.41C216.37 28.4696 218.44 28.0596 219.61 27.2596C220.79 26.4496 221.37 25.1996 221.37 23.4996C221.37 21.7796 220.83 20.5296 219.73 19.7696C218.63 19.0096 216.66 18.6196 213.79 18.6196H211.33V28.4696H211.34Z" stroke="#2B388C" stroke-width="1.03" stroke-miterlimit="10"/><path d="M248.92 12.1096C253.88 12.1096 258.07 13.7797 261.48 17.1297C264.9 20.4797 266.61 24.5896 266.61 29.4796C266.61 34.3996 264.91 38.5397 261.5 41.8897C258.1 45.2397 253.9 46.9197 248.91 46.9197C243.97 46.9197 239.78 45.2396 236.37 41.8696C232.96 38.5096 231.25 34.3697 231.25 29.4697C231.25 24.5797 232.95 20.4697 236.37 17.1197C239.79 13.7797 243.97 12.1096 248.92 12.1096ZM248.92 40.8597C252.1 40.8597 254.69 39.7797 256.69 37.6097C258.7 35.4497 259.71 32.7296 259.71 29.4796C259.71 26.2396 258.71 23.5397 256.69 21.3797C254.69 19.2297 252.1 18.1497 248.92 18.1497C245.77 18.1497 243.18 19.2297 241.18 21.3797C239.17 23.5397 238.17 26.2396 238.17 29.4796C238.17 32.7196 239.16 35.4297 241.15 37.5997C243.12 39.7697 245.71 40.8597 248.92 40.8597Z" fill="#2B388C"/><path d="M248.92 12.1096C253.88 12.1096 258.07 13.7797 261.48 17.1297C264.9 20.4797 266.61 24.5896 266.61 29.4796C266.61 34.3996 264.91 38.5397 261.5 41.8897C258.1 45.2397 253.9 46.9197 248.91 46.9197C243.97 46.9197 239.78 45.2396 236.37 41.8696C232.96 38.5096 231.25 34.3697 231.25 29.4697C231.25 24.5797 232.95 20.4697 236.37 17.1197C239.79 13.7797 243.97 12.1096 248.92 12.1096ZM248.92 40.8597C252.1 40.8597 254.69 39.7797 256.69 37.6097C258.7 35.4497 259.71 32.7296 259.71 29.4796C259.71 26.2396 258.71 23.5397 256.69 21.3797C254.69 19.2297 252.1 18.1497 248.92 18.1497C245.77 18.1497 243.18 19.2297 241.18 21.3797C239.17 23.5397 238.17 26.2396 238.17 29.4796C238.17 32.7196 239.16 35.4297 241.15 37.5997C243.12 39.7697 245.71 40.8597 248.92 40.8597Z" stroke="#2B388C" stroke-width="1.03" stroke-miterlimit="10"/><path d="M297.9 46.2596H290.33L282.39 34.1196H278.52V46.2596H271.78V12.7496H281.85C286.12 12.7496 289.4 13.6696 291.67 15.4996C293.94 17.3196 295.07 19.9096 295.07 23.2796C295.07 25.4996 294.5 27.4796 293.36 29.2196C292.22 30.9596 290.71 32.1596 288.83 32.8196L297.9 46.2596ZM278.51 28.4696H280.43C283.21 28.4696 285.21 28.0796 286.42 27.2996C287.64 26.5196 288.25 25.2596 288.25 23.4996C288.25 21.6996 287.69 20.4096 286.56 19.6596C285.44 18.8996 283.65 18.5196 281.22 18.5196H278.51V28.4696V28.4696Z" fill="#2B388C"/><path d="M297.9 46.2596H290.33L282.39 34.1196H278.52V46.2596H271.78V12.7496H281.85C286.12 12.7496 289.4 13.6696 291.67 15.4996C293.94 17.3196 295.07 19.9096 295.07 23.2796C295.07 25.4996 294.5 27.4796 293.36 29.2196C292.22 30.9596 290.71 32.1596 288.83 32.8196L297.9 46.2596ZM278.51 28.4696H280.43C283.21 28.4696 285.21 28.0796 286.42 27.2996C287.64 26.5196 288.25 25.2596 288.25 23.4996C288.25 21.6996 287.69 20.4096 286.56 19.6596C285.44 18.8996 283.65 18.5196 281.22 18.5196H278.51V28.4696V28.4696Z" stroke="#2B388C" stroke-width="1.03" stroke-miterlimit="10"/><path d="M326.16 18.6196H315.64V46.2596H308.93V18.6196H298.42V12.7496H326.16V18.6196Z" fill="#2B388C"/><path d="M326.16 18.6196H315.64V46.2596H308.93V18.6196H298.42V12.7496H326.16V18.6196Z" stroke="#2B388C" stroke-width="1.03" stroke-miterlimit="10"/></svg>