<svg width="23" height="23" viewBox="0 0 23 23" fill="none" xmlns="http://www.w3.org/2000/svg"><g clip-path="url(#clip0)" fill="#fff"><path d="M15.4804 11.16L8.65039 17.99V19.2L16.6904 11.16L8.65039 3.12V4.33L15.4804 11.16Z"/><path d="M8.53027 19.5V17.94L8.57027 17.9L15.3103 11.16L8.53027 4.38001V2.82001L16.8703 11.16L16.7803 11.25L8.53027 19.5ZM8.78027 18.04V18.89L16.5203 11.15L8.78027 3.42001V4.27001L15.6603 11.15L15.5703 11.24L8.78027 18.04Z"/><path d="M11.16 22.32C5.01 22.32 0 17.31 0 11.16C0 5.01 5.01 0 11.16 0C17.31 0 22.32 5.01 22.32 11.16C22.32 17.31 17.31 22.32 11.16 22.32ZM11.16 1C5.56 1 1 5.56 1 11.16C1 16.76 5.56 21.32 11.16 21.32C16.76 21.32 21.32 16.76 21.32 11.16C21.32 5.56 16.76 1 11.16 1Z"/></g><defs><clipPath id="clip0"><path fill="#fff" d="M0 0H22.32V22.32H0z"/></clipPath></defs></svg>