<svg width="36" height="36" viewBox="0 0 36 36" fill="none" xmlns="http://www.w3.org/2000/svg"><g clip-path="url(#clip0)"><path d="M17.77 0C7.97 0 0 7.97 0 17.77C0 27.57 7.97 35.54 17.77 35.54C27.57 35.54 35.54 27.57 35.54 17.77C35.54 7.97 27.57 0 17.77 0Z" fill="#fff"/><path d="M23.2599 17.7699L13.3799 27.6599V29.3999L25.0099 17.7699L13.3799 6.13989V7.87989L23.2599 17.7699Z" fill="#fff"/><path d="M23.2599 17.7699L13.3799 27.6599V29.3999L25.0099 17.7699L13.3799 6.13989V7.87989L23.2599 17.7699Z" stroke="#fff" stroke-miterlimit="10"/><path d="M13.1899 29.84V27.58L13.2399 27.53L22.9999 17.77L13.1899 7.95995V5.69995L25.2599 17.77L25.1299 17.9L13.1899 29.84ZM13.5599 27.7299V28.9599L24.7499 17.77L13.5599 6.56995V7.79995L23.5199 17.76L23.3899 17.89L13.5599 27.7299Z" fill="#E61C23"/><path d="M13.1899 29.84V27.58L13.2399 27.53L22.9999 17.77L13.1899 7.95995V5.69995L25.2599 17.77L25.1299 17.9L13.1899 29.84ZM13.5599 27.7299V28.9599L24.7499 17.77L13.5599 6.56995V7.79995L23.5199 17.76L23.3899 17.89L13.5599 27.7299Z" fill="#7A7373"/><path d="M13.1899 29.84V27.58L13.2399 27.53L22.9999 17.77L13.1899 7.95995V5.69995L25.2599 17.77L25.1299 17.9L13.1899 29.84ZM13.5599 27.7299V28.9599L24.7499 17.77L13.5599 6.56995V7.79995L23.5199 17.76L23.3899 17.89L13.5599 27.7299Z" stroke="#2B388C" stroke-miterlimit="10"/></g><defs><clipPath id="clip0"><path fill="#fff" d="M0 0H35.54V35.54H0z"/></clipPath></defs></svg>