<svg width="37" height="37" viewBox="0 0 37 37" fill="none" xmlns="http://www.w3.org/2000/svg"><path d="M18.27 0.5C8.47 0.5 0.5 8.47 0.5 18.27C0.5 28.07 8.47 36.04 18.27 36.04C28.07 36.04 36.04 28.07 36.04 18.27C36.04 8.47 28.07 0.5 18.27 0.5Z" fill="#E61C23"/><path d="M18.27 0.5C8.47 0.5 0.5 8.47 0.5 18.27C0.5 28.07 8.47 36.04 18.27 36.04C28.07 36.04 36.04 28.07 36.04 18.27C36.04 8.47 28.07 0.5 18.27 0.5Z" stroke="#E61C23" fill="#E61C23" stroke-miterlimit="10"/><path fill="#fff" d="M23.7599 18.2699L13.8799 28.1499V29.8999L25.5099 18.2699L13.8799 6.63989V8.37989L23.7599 18.2699Z"/><path fill="#fff" d="M23.7599 18.2699L13.8799 28.1499V29.8999L25.5099 18.2699L13.8799 6.63989V8.37989L23.7599 18.2699Z" stroke="#fff" stroke-miterlimit="10"/><path d="M13.7002 30.34V28.08L13.7502 28.03L23.5102 18.27L13.7002 8.45995V6.19995L25.7702 18.27L25.6402 18.4L13.7002 30.34ZM14.0602 28.2299V29.4599L25.2502 18.27L14.0602 7.06995V8.29995L24.0202 18.26L23.8902 18.39L14.0602 28.2299Z" fill="#fff"/><defs><clipPath id="clip0"><path fill="#fff" d="M0 0H36.54V36.54H0z"/></clipPath></defs></svg>