<svg width="165" height="165" viewBox="0 0 165 165" fill="#E61C23" xmlns="http://www.w3.org/2000/svg"><path d="M165 82.5C165 36.94 128.06 0 82.5 0C36.94 0 0 36.94 0 82.5C0 128.06 36.94 165 82.5 165C128.06 165 165 128.06 165 82.5Z"/><path d="M138.18 73.3496C139.17 71.9296 141.12 71.5896 142.54 72.5796C143.95 73.5696 144.3 75.5196 143.31 76.9396C142.32 78.3496 140.37 78.6996 138.95 77.7096C137.53 76.7096 137.19 74.7596 138.18 73.3496ZM27.8297 77.7796C29.2397 76.7896 29.5897 74.8396 28.5997 73.4196C27.6097 72.0096 25.6597 71.6596 24.2397 72.6496C22.8297 73.6396 22.4797 75.5896 23.4697 77.0096C24.4597 78.4296 26.4097 78.7696 27.8297 77.7796ZM144.94 84.3596L140.58 88.1596C140.28 88.4196 139.9 88.5596 139.51 88.5596C139.47 88.5596 139.43 88.5596 139.4 88.5596C139.05 88.5296 138.73 88.3696 138.47 88.1496C136.06 89.9196 134.86 92.3296 133.34 95.3796C131.45 99.1896 129.07 103.89 123.46 108.78C124.52 111.42 123.99 114.56 121.85 116.7C120.43 118.13 118.55 118.84 116.68 118.84C115.46 118.84 114.26 118.51 113.16 117.9C112.93 119.38 112.27 120.8 111.13 121.94C109.7 123.37 107.83 124.08 105.96 124.08C105.64 124.08 105.32 124.03 105 123.99C105.18 126.07 104.51 128.22 102.92 129.81C101.49 131.24 99.6197 131.95 97.7397 131.95C95.8697 131.95 93.9897 131.24 92.5697 129.81L90.4297 127.67C90.1597 129.07 89.5097 130.41 88.4297 131.48L85.0897 134.83C84.7297 135.19 84.3597 135.48 83.9697 135.72C82.8397 136.51 81.4097 136.96 79.9197 136.96C77.9497 136.96 76.1097 136.2 74.7297 134.84C73.6697 133.78 73.0297 132.46 72.7597 131.08L71.5097 132.33C70.1297 133.71 68.2897 134.47 66.3297 134.47C64.3697 134.47 62.5297 133.71 61.1597 132.33C59.5697 130.74 58.8997 128.59 59.0797 126.51C58.7597 126.55 58.4397 126.6 58.1197 126.6C56.1597 126.6 54.3197 125.84 52.9497 124.46C51.5697 123.08 50.8097 121.24 50.8097 119.29C50.8097 119.02 50.8597 118.76 50.8897 118.49C50.6597 118.51 50.4297 118.56 50.1997 118.56C48.2397 118.56 46.3997 117.8 45.0197 116.42C42.7797 114.18 42.3297 110.84 43.6097 108.12C43.5597 108.09 43.5097 108.07 43.4597 108.03L42.9297 107.58C40.7397 105.71 40.5097 105.51 39.3697 104.37C35.8197 100.84 33.6597 96.9996 32.1597 94.0496C31.6397 93.0196 31.1597 92.0096 30.6997 91.0596C30.0797 89.7596 29.5197 88.5896 28.9397 87.5596L28.4897 88.0796C28.1697 88.4496 27.7097 88.6396 27.2597 88.6396C26.8797 88.6396 26.4997 88.5096 26.1897 88.2396L21.8297 84.4396C21.1497 83.8496 21.0797 82.8196 21.6697 82.1396C22.2597 81.4596 23.2997 81.3896 23.9697 81.9796L27.0997 84.7096L50.0097 58.4196C50.0197 58.3896 50.0197 58.3696 50.0297 58.3396C50.1497 58.0996 50.3397 57.9096 50.5497 57.7596L39.1997 47.8696C38.5197 47.2796 38.4497 46.2496 39.0397 45.5696C39.6297 44.8896 40.6697 44.8196 41.3397 45.4096L53.9397 56.3896C54.2697 56.6796 54.4697 57.0796 54.4997 57.5096C54.5097 57.6296 54.4697 57.7396 54.4497 57.8596C56.9097 57.9196 60.1697 57.3696 64.1197 56.2296C64.4797 56.1396 64.7797 56.0496 65.0797 55.9596C71.4497 54.0396 78.2897 55.1096 83.3997 58.7996C88.4997 55.1096 95.3497 54.0396 101.72 55.9596C106.07 57.2796 109.69 57.9196 112.29 57.8796C112.18 57.3196 112.33 56.7196 112.79 56.3196L125.39 45.3396C126.07 44.7496 127.1 44.8196 127.69 45.4996C128.28 46.1796 128.21 47.2096 127.53 47.7996L116.17 57.6996C116.45 57.8696 116.68 58.1296 116.82 58.4596L139.64 84.6396L142.77 81.9096C143.45 81.3196 144.48 81.3896 145.07 82.0696C145.69 82.7396 145.62 83.7696 144.94 84.3596ZM52.9397 114.11L54.4597 112.59C54.8997 111.93 55.1297 111.16 55.1297 110.35C55.1297 109.26 54.7097 108.24 53.9497 107.48C53.1897 106.72 52.1697 106.3 51.0797 106.3C49.9897 106.3 48.9797 106.72 48.2197 107.48L47.3197 108.38C45.7397 109.96 45.7397 112.53 47.3197 114.11C48.7397 115.53 51.1597 115.61 52.7197 114.38C52.7997 114.3 52.8597 114.2 52.9397 114.11ZM61.1597 121.98L64.2097 118.93L66.6197 116.51C67.3797 115.75 67.7997 114.73 67.7997 113.65C67.7997 112.56 67.3797 111.54 66.6197 110.78C65.8597 110.02 64.8397 109.6 63.7597 109.6C62.6697 109.6 61.6497 110.02 60.8897 110.78L56.7897 114.88C56.6197 115.1 56.4597 115.32 56.2597 115.52L55.3597 116.42C55.2497 116.53 55.1197 116.61 55.0097 116.71C54.4097 117.43 54.0597 118.33 54.0597 119.29C54.0597 120.38 54.4797 121.4 55.2397 122.16C56.7597 123.68 59.4497 123.68 60.9697 122.16L61.1597 121.98C61.1497 121.98 61.1497 121.98 61.1597 121.98ZM76.3497 122.87C77.9197 121.29 77.9197 118.73 76.3397 117.15C75.5797 116.39 74.5597 115.97 73.4697 115.97C72.3797 115.97 71.3697 116.39 70.5997 117.15L66.5197 121.23L63.4597 124.29C61.8897 125.87 61.8897 128.44 63.4697 130.02C64.9897 131.54 67.6797 131.54 69.1997 130.02L74.6597 124.56C74.6697 124.55 74.6797 124.54 74.6797 124.53L76.3497 122.87ZM86.5797 124.01C86.4397 123.81 86.2797 123.62 86.1097 123.45C85.9297 123.27 85.7497 123.11 85.5397 122.97C85.5097 122.95 85.4797 122.93 85.4497 122.9C84.7997 122.48 84.0397 122.26 83.2497 122.26C82.1597 122.26 81.1397 122.68 80.3697 123.45L78.6397 125.18L78.6297 125.19L76.9997 126.82C76.8697 126.96 76.7097 127.14 76.6097 127.3C75.4497 128.98 75.6497 131.15 77.0197 132.53C78.3397 133.85 80.6197 134.07 82.1597 132.99C82.4097 132.83 82.5797 132.7 82.7597 132.52L86.0997 129.16C87.4897 127.81 87.6897 125.59 86.5797 124.01ZM119.54 108.66L118.65 107.77C118.65 107.77 118.64 107.77 118.63 107.76L88.2697 77.3996C87.3197 76.4396 85.8197 76.4096 84.8597 77.3396C82.2497 79.8396 78.4797 83.4296 76.2697 85.5296L74.4897 87.2296C73.1897 88.4796 71.4997 89.1096 69.6697 89.0996C67.8597 89.0596 66.1797 88.3196 64.9297 87.0096L64.1697 86.2096C63.9197 85.9396 63.7197 85.6996 63.5597 85.4396C61.5997 82.8496 61.9097 79.0196 64.3597 76.6596L80.7597 60.9696C80.7597 60.9696 80.7597 60.9696 80.7697 60.9596C76.5697 58.2496 71.1297 57.5196 66.0297 59.0596C65.6797 59.1696 65.3297 59.2696 64.9697 59.3596C59.4897 60.9496 55.1797 61.4596 52.1797 60.8796L31.1997 84.9696C32.0597 86.3496 32.8297 87.9596 33.6397 89.6596C34.0897 90.5896 34.5497 91.5696 35.0597 92.5796C36.4397 95.3196 38.4397 98.8696 41.6597 102.07C42.7097 103.12 42.8397 103.23 45.0297 105.1L45.5397 105.54L45.8997 105.18C47.2797 103.8 49.1097 103.04 51.0697 103.04C53.0297 103.04 54.8697 103.8 56.2397 105.18C57.2497 106.19 57.9197 107.45 58.2097 108.83L58.5597 108.48C59.9397 107.1 61.7697 106.34 63.7297 106.34C65.6897 106.34 67.5297 107.1 68.8997 108.48C70.1597 109.74 70.8697 111.39 70.9897 113.16C71.7697 112.88 72.5897 112.72 73.4397 112.72C75.3997 112.72 77.2397 113.48 78.6097 114.86C79.9097 116.16 80.5797 117.82 80.6997 119.52C82.8397 118.76 85.3197 118.94 87.2497 120.21C87.2897 120.23 87.3297 120.26 87.3597 120.29C87.3597 120.29 87.3597 120.29 87.3697 120.29C87.6897 120.51 87.9997 120.77 88.3297 121.1C88.4097 121.16 88.5097 121.19 88.5897 121.27L94.8397 127.52C96.4197 129.1 98.9897 129.1 100.57 127.52C101.33 126.76 101.75 125.74 101.75 124.65C101.75 123.56 101.33 122.55 100.57 121.79L95.0997 116.32L90.0097 111.23C89.3697 110.59 89.3697 109.56 90.0097 108.92C90.6497 108.28 91.6797 108.28 92.3197 108.92L102.88 119.48L103.05 119.66C104.63 121.24 107.2 121.24 108.78 119.66C110.2 118.24 110.33 116.03 109.21 114.45L98.3097 103.4C98.2397 103.33 98.2097 103.24 98.1497 103.16C98.0797 103.06 97.9997 102.97 97.9597 102.86C97.9197 102.77 97.9297 102.68 97.9097 102.59C97.8897 102.48 97.8497 102.37 97.8497 102.25C97.8497 102.13 97.8897 102.02 97.9197 101.91C97.9397 101.82 97.9397 101.73 97.9697 101.64C98.0197 101.53 98.0997 101.44 98.1697 101.34C98.2197 101.26 98.2597 101.17 98.3297 101.1C98.4097 101.02 98.5197 100.97 98.6097 100.91C98.6997 100.85 98.7697 100.78 98.8697 100.74C98.9797 100.7 99.0897 100.69 99.1997 100.68C99.2897 100.66 99.3897 100.63 99.4797 100.63C99.5797 100.63 99.6797 100.67 99.7797 100.69C99.8897 100.71 99.9897 100.71 100.09 100.75C100.19 100.79 100.27 100.87 100.36 100.93C100.45 100.99 100.55 101.03 100.63 101.11L111.13 111.61C111.29 111.77 111.41 111.96 111.56 112.14L113.82 114.42C115.33 115.93 118.02 115.94 119.55 114.42C121.12 112.82 121.12 110.24 119.54 108.66ZM136.29 85.7196L114.67 60.9096C111.49 61.5096 106.84 60.8996 100.8 59.0696C95.3997 57.4496 89.6097 58.3296 85.3197 61.4396C84.5097 62.0196 83.7397 62.6496 83.0297 63.3396L66.6297 79.0196C65.3697 80.2396 65.1997 82.2096 66.2497 83.5996C66.3897 83.8196 66.4797 83.8996 66.5597 83.9996L67.2897 84.7696C67.9297 85.4496 68.7997 85.8296 69.7397 85.8496C70.6497 85.8996 71.5597 85.5296 72.2297 84.8896L74.0097 83.1896C76.2197 81.0896 79.9797 77.4996 82.5897 74.9996C84.8197 72.8596 88.3997 72.9096 90.5797 75.1096L120.93 105.46C120.93 105.46 120.94 105.47 120.95 105.47L121.58 106.1C126.5 101.72 128.59 97.5996 130.41 93.9396C131.95 90.8396 133.41 87.9296 136.29 85.7196Z" fill="#fff"/><path d="M137.405 137.406C167.729 107.082 167.729 57.9176 137.405 27.5937C107.082 -2.73022 57.9168 -2.73023 27.5928 27.5937C-2.73108 57.9176 -2.73108 107.082 27.5928 137.406C57.9168 167.73 107.082 167.73 137.405 137.406Z" stroke="#fff" stroke-width="2.835" stroke-miterlimit="10"/><defs><clipPath id="clip0"><path d="M0 0H165V165H0z"/></clipPath></defs></svg>