<svg width="165" height="165" viewBox="0 0 165 165" fill="none" xmlns="http://www.w3.org/2000/svg"><path d="M165 82.5C165 36.94 128.06 0 82.5 0C36.94 0 0 36.94 0 82.5C0 128.06 36.94 165 82.5 165C128.06 165 165 128.06 165 82.5Z" fill="#E61C23"/><path d="M97.7398 80.6905C94.2998 80.6905 90.9698 80.0205 87.8198 78.6905C84.7898 77.4105 82.0598 75.5705 79.7198 73.2305C77.3798 70.8905 75.5498 68.1705 74.2598 65.1305C72.9298 61.9905 72.2598 58.6505 72.2598 55.2105C72.2598 51.7705 72.9298 48.4405 74.2598 45.2905C75.5398 42.2605 77.3798 39.5305 79.7198 37.1905C82.0598 34.8505 84.7798 33.0205 87.8198 31.7305C90.9598 30.4005 94.2998 29.7305 97.7398 29.7305C101.18 29.7305 104.51 30.4005 107.66 31.7305C110.69 33.0105 113.42 34.8505 115.76 37.1905C118.1 39.5305 119.93 42.2505 121.22 45.2905C122.55 48.4305 123.22 51.7705 123.22 55.2105C123.22 58.6505 122.55 61.9805 121.22 65.1305C119.94 68.1605 118.1 70.8905 115.76 73.2305C113.42 75.5705 110.7 77.4105 107.66 78.6905C104.52 80.0105 101.18 80.6905 97.7398 80.6905ZM97.7398 33.0505C85.5198 33.0505 75.5798 42.9905 75.5798 55.2105C75.5798 67.4305 85.5198 77.3705 97.7398 77.3705C109.96 77.3705 119.9 67.4305 119.9 55.2105C119.9 42.9905 109.96 33.0505 97.7398 33.0505Z" fill="#fff"/><path d="M106.23 58.1099C105.75 57.1399 105.08 56.3199 104.23 55.6599C103.38 54.9999 102.44 54.4899 101.42 54.1399C101.06 54.0099 100.05 53.7499 98.3798 53.3399C96.3998 52.8599 95.0298 52.3899 94.2898 51.9199C93.0698 51.1699 92.4598 50.0799 92.4598 48.6299C92.4598 47.3499 92.9598 46.2499 93.9498 45.3299C94.9398 44.4099 96.1498 43.9499 97.5698 43.9499C99.1498 43.9499 100.46 44.3999 101.51 45.2899C102.55 46.1799 103.07 47.2899 103.07 48.6299H103.08C104.85 50.6699 106.2 48.6199 106.2 48.6199C106.2 48.6199 106.2 48.6199 106.19 48.6099C106.18 46.5699 105.38 44.8499 103.79 43.4699C102.19 42.0799 100.25 41.3799 97.9598 41.3799C95.5798 41.3799 93.5598 42.0599 91.9198 43.4099C90.2798 44.7599 89.4598 46.4999 89.4598 48.6199C89.4598 49.5999 89.6698 50.5199 90.1098 51.3699C90.5398 52.2299 91.1698 52.9699 91.9898 53.5899C92.6498 54.1099 93.4798 54.5299 94.4798 54.8699C94.9798 55.0499 95.8898 55.2999 97.2098 55.6199C98.2698 55.8499 99.0898 56.0699 99.6698 56.2599C100.51 56.5499 101.25 56.9099 101.89 57.3599C102.51 57.8399 103 58.4199 103.36 59.0799C103.72 59.7499 103.9 60.4399 103.9 61.1499C103.9 62.6799 103.3 63.9499 102.1 64.9499C100.9 65.9499 99.4198 66.4499 97.6798 66.4499C96.0198 66.4499 94.6098 65.9199 93.4598 64.8599C92.3098 63.7999 91.7298 62.5199 91.7298 61.0199C89.9098 58.9699 88.5098 61.0199 88.5098 61.0199C88.5098 63.3499 89.3998 65.2699 91.1798 66.7699C92.9598 68.2699 95.1798 69.0099 97.8198 69.0099C100.28 69.0099 102.42 68.2499 104.22 66.7399C106.02 65.2299 106.92 63.3799 106.92 61.2099C106.95 60.1199 106.71 59.0899 106.23 58.1099Z" fill="#fff"/><path d="M97.7395 72.89C96.9295 72.89 96.2695 72.23 96.2695 71.42V39.01C96.2695 38.2 96.9295 37.54 97.7395 37.54C98.5495 37.54 99.2095 38.2 99.2095 39.01V71.42C99.2195 72.23 98.5595 72.89 97.7395 72.89Z" fill="#fff"/><path d="M94.2598 105.94C93.4498 105.94 92.6298 105.82 91.8198 105.58L78.0798 101.45C77.1298 101.16 76.5899 100.16 76.8699 99.2101C77.1599 98.2601 78.1598 97.7201 79.1098 98.0101L92.8498 102.14C94.8398 102.74 97.0399 101.99 97.9799 100.4C98.4199 99.6401 98.5198 98.7801 98.2498 97.9701C97.9398 97.0401 97.1698 96.2601 96.1398 95.8201L68.4598 86.5401C68.4198 86.5301 68.3798 86.5101 68.3398 86.5001C66.8998 85.9001 65.1598 86.0601 63.8998 86.9101C63.8598 86.9301 63.8298 86.9601 63.7898 86.9801L47.3298 96.3801C46.4698 96.8701 45.3698 96.5701 44.8798 95.7101C44.3898 94.8501 44.6898 93.7501 45.5498 93.2601L61.9598 83.8901C64.1998 82.4101 67.1398 82.1301 69.6598 83.1601L97.3498 92.4401C97.3898 92.4501 97.4298 92.4701 97.4698 92.4801C99.4898 93.3201 101.02 94.9001 101.67 96.8401C102.28 98.6501 102.07 100.56 101.09 102.23C99.6998 104.56 97.0498 105.94 94.2598 105.94Z" fill="#fff"/><path d="M90.3002 123.46C89.5402 123.46 88.7802 123.35 88.0302 123.13L60.9802 115.16C59.4802 114.72 57.7802 115.13 56.7502 116.18C56.4102 116.52 55.9602 116.71 55.4802 116.72H54.8902H54.8802C53.8902 116.72 53.0902 115.92 53.0802 114.93C53.0702 113.97 53.8202 113.18 54.7602 113.12C56.7202 111.52 59.4702 110.96 61.9902 111.7L89.0402 119.67C90.2202 120.02 91.5302 119.85 92.5602 119.22L126.28 98.4504C127.16 97.9104 127.72 97.1204 127.87 96.2204C128 95.4104 127.77 94.5904 127.21 93.9204C126 92.4704 123.61 92.1404 121.88 93.1804L104.6 104.18C103.76 104.72 102.65 104.47 102.12 103.63C101.59 102.79 101.83 101.68 102.67 101.15L119.97 90.1404C119.98 90.1304 119.99 90.1304 120 90.1204C121.56 89.1704 123.44 88.7904 125.29 89.0604C127.16 89.3304 128.83 90.2404 129.98 91.6204C131.22 93.1004 131.74 94.9404 131.43 96.8004C131.12 98.7204 129.93 100.44 128.18 101.52L94.4502 122.3C93.2002 123.07 91.7602 123.46 90.3002 123.46Z" fill="#fff"/><path d="M42.2797 128.26C41.6297 128.26 40.9997 127.9 40.6797 127.28L26.3897 99.4499C26.1697 99.0099 26.1297 98.4999 26.2897 98.0399C26.4497 97.5799 26.7897 97.1999 27.2397 96.9899L41.5897 90.3799C42.4597 89.9799 43.4897 90.3299 43.9397 91.1799L58.1597 118.43C58.3797 118.86 58.4197 119.36 58.2797 119.81C58.1297 120.27 57.8097 120.65 57.3797 120.86L43.0997 128.05C42.8297 128.2 42.5497 128.26 42.2797 128.26ZM30.4497 99.4799L43.0597 124.05L54.1197 118.48L41.5397 94.3699L30.4497 99.4799Z" fill="#fff"/><path d="M47.9502 116.51C47.9502 117.7 46.9502 118.67 45.7202 118.67C44.4902 118.67 43.4902 117.7 43.4902 116.51C43.4902 115.32 44.4902 114.35 45.7202 114.35C46.9602 114.35 47.9502 115.32 47.9502 116.51Z" fill="#fff"/><path d="M137.405 137.406C167.729 107.082 167.729 57.9176 137.405 27.5937C107.082 -2.73022 57.9168 -2.73023 27.5928 27.5937C-2.73108 57.9176 -2.73108 107.082 27.5928 137.406C57.9168 167.73 107.082 167.73 137.405 137.406Z" stroke="#fff" stroke-width="2.835" stroke-miterlimit="10"/><defs><clipPath id="clip0"><path fill="#fff" d="M0 0H165V165H0z"/></clipPath></defs></svg>