<svg width="165" height="165" viewBox="0 0 165 165" fill="none" xmlns="http://www.w3.org/2000/svg"><path d="M165 82.5C165 36.94 128.06 0 82.5 0C36.94 0 0 36.94 0 82.5C0 128.06 36.94 165 82.5 165C128.06 165 165 128.06 165 82.5Z" fill="#E61C23"/><path d="M123.44 77.0801L123.5 77.0001L130.59 68.3201C131.08 67.7201 131.27 66.9601 131.1 66.2301C130.93 65.5001 130.43 64.9001 129.72 64.5801L93.1202 47.8201H100.46C101.41 47.8201 102.17 47.3701 102.51 46.6201C102.85 45.8701 102.67 45.0001 102.03 44.3001L84.1602 24.4601C83.6602 23.9001 82.9402 23.5801 82.2102 23.5801C81.4802 23.5801 80.7602 23.9001 80.2602 24.4601L62.3802 44.2901C61.7502 44.9901 61.5702 45.8601 61.9002 46.6101C62.2302 47.3601 63.0002 47.8101 63.9502 47.8101H72.0602L71.5402 48.0501L34.6802 64.9301C33.9702 65.2501 33.4702 65.8601 33.3002 66.5801C33.1302 67.3001 33.3202 68.0601 33.8102 68.6701L40.8202 77.2501L31.6002 87.6101C31.0702 88.2001 30.8602 88.9601 31.0202 89.7001C31.1702 90.4301 31.6802 91.0401 32.4002 91.3701L41.4802 95.4901V121.23C41.4802 122.43 42.2702 123.68 43.3602 124.19L80.5702 141.66C81.4902 142.09 82.9302 142.09 83.8502 141.66L121.06 124.19C122.15 123.68 122.94 122.43 122.94 121.23V94.5501L123.01 94.5201L131.42 90.7001C132.14 90.3701 132.64 89.7601 132.8 89.0301C132.96 88.3001 132.74 87.5401 132.21 86.9401L123.44 77.0801ZM127.45 67.0701L127.35 67.2001L120.85 75.1601L120.5 75.0001L91.1202 62.0001V50.4301L91.3002 50.5101L127.45 67.0701ZM66.4302 44.6001L82.2002 27.1101L82.2902 27.2101L97.9802 44.6001H87.9002V76.9501H76.5202V44.6001H66.4302ZM36.9602 67.4301L37.1102 67.3601L73.3002 50.7901V62.0001L73.2302 62.0301L43.3502 75.2501L36.9602 67.4301ZM34.7602 88.9101L34.8702 88.7801L43.5202 79.0601L43.6002 79.1001L79.5202 94.5001L79.4102 94.6301L70.1902 105L70.1102 104.96L34.7602 88.9101ZM80.6002 138.12L80.4202 138.04L44.7002 121.27V96.9601L44.8802 97.0401L68.9802 107.98C70.1202 108.5 71.6702 108.17 72.5102 107.23L80.6002 98.1401V138.12V138.12ZM82.2102 92.1501L82.1602 92.1301L47.1202 77.1001L47.3802 76.9801L73.3002 65.5101V77.4201C73.3002 78.9301 74.5302 80.1601 76.0402 80.1601H88.3802C89.8902 80.1601 91.1202 78.9301 91.1202 77.4201V65.5101L91.3002 65.5901L117.3 77.1001L117.04 77.2101L82.2102 92.1501ZM119.71 121.27L119.64 121.3L83.8202 138.12V98.1501L84.0402 98.4001L91.3102 106.57C92.1502 107.51 93.7002 107.84 94.8402 107.32L119.72 96.0201V121.27H119.71ZM128.43 88.5201L93.6102 104.33L93.5502 104.26L84.8802 94.5101L85.0402 94.4401L120.89 79.0601L120.95 79.1301L129.05 88.2401L128.43 88.5201Z" fill="#fff"/><path d="M159.568 91.9911C164.809 49.4278 134.553 10.6752 91.9896 5.43465C49.4263 0.19411 10.6737 30.4502 5.43317 73.0134C0.19263 115.577 30.4487 154.329 73.012 159.57C115.575 164.81 154.328 134.554 159.568 91.9911Z" stroke="#fff" stroke-width="2.835" stroke-miterlimit="10"/><defs><clipPath id="clip0"><path fill="#fff" d="M0 0H165V165H0z"/></clipPath></defs></svg>