<svg width="47" height="41" viewBox="0 0 47 41" fill="none" xmlns="http://www.w3.org/2000/svg"><path d="M32.6059 13.8593C28.3459 14.0793 24.656 15.3693 21.646 18.2893C18.616 21.2293 17.2259 24.8393 17.6059 29.3093C15.9459 29.0993 14.426 28.8793 12.906 28.7493C12.376 28.7093 11.756 28.7693 11.306 29.0193C9.82599 29.8493 8.40591 30.7993 6.72591 31.8493C7.03591 30.4593 7.2359 29.2293 7.5859 28.0593C7.8459 27.1993 7.72599 26.7193 6.92599 26.1493C1.81599 22.5393 -0.334036 17.1493 1.27596 11.5893C2.76596 6.44935 6.42597 3.32934 11.406 1.70934C18.196 -0.510655 25.826 1.74934 29.956 7.14934C31.446 9.08934 32.3659 11.2793 32.6059 13.8593ZM13.026 12.1293C13.066 11.1093 12.1859 10.1993 11.1359 10.1693C10.0659 10.1393 9.18597 10.9593 9.15597 12.0093C9.12597 13.0793 9.94595 13.9393 11.016 13.9593C12.086 13.9893 12.986 13.1693 13.026 12.1293ZM23.2359 10.1693C22.1859 10.1893 21.296 11.0793 21.316 12.0993C21.336 13.1593 22.206 13.9793 23.286 13.9693C24.366 13.9593 25.186 13.1193 25.176 12.0393C25.176 10.9793 24.3059 10.1493 23.2359 10.1693Z" fill="#fff"/><path d="M42.166 40.3794C40.816 39.7794 39.586 38.8793 38.266 38.7393C36.956 38.5993 35.576 39.3594 34.206 39.4994C30.026 39.9294 26.286 38.7594 23.206 35.9094C17.336 30.4794 18.1759 22.1594 24.9659 17.7094C30.9959 13.7594 39.8459 15.0793 44.1059 20.5593C47.8159 25.3493 47.3859 31.6994 42.8459 35.7194C41.5359 36.8794 41.066 37.8394 41.906 39.3794C42.056 39.6694 42.076 40.0294 42.166 40.3794ZM26.826 25.5394C27.686 25.5394 28.386 24.8694 28.426 24.0194C28.456 23.1194 27.7359 22.3694 26.8359 22.3694C25.9459 22.3694 25.2059 23.1294 25.2359 24.0094C25.2659 24.8494 25.976 25.5394 26.826 25.5394ZM36.7159 22.3694C35.8859 22.3594 35.176 23.0394 35.146 23.8894C35.106 24.7894 35.806 25.5294 36.696 25.5294C37.556 25.5294 38.236 24.8794 38.266 24.0294C38.296 23.1194 37.5959 22.3794 36.7159 22.3694Z" fill="#fff"/></svg>