<svg width="42" height="42" viewBox="0 0 42 42" fill="none" xmlns="http://www.w3.org/2000/svg"><path d="M35.4859 6.59935C31.6159 2.72935 26.4559 0.589355 20.9859 0.589355C15.5059 0.589355 10.3559 2.71935 6.4859 6.59935C2.6159 10.4694 0.475891 15.6194 0.475891 21.0994C0.475891 24.2094 1.18595 27.2794 2.53595 30.0594L0.365906 41.6494L11.7759 39.4294C14.6259 40.8594 17.7859 41.6094 20.9959 41.6094C26.4759 41.6094 31.6259 39.4794 35.4959 35.5994C39.3659 31.7294 41.5059 26.5794 41.5059 21.0994C41.5059 15.6194 39.3659 10.4694 35.4859 6.59935ZM20.9859 38.8294C17.7959 38.8294 14.796 37.9894 12.206 36.5094L3.84589 38.1394L5.43597 29.6394C4.04597 27.1094 3.24591 24.1994 3.24591 21.1094C3.24591 11.3194 11.1859 3.37936 20.9759 3.37936C30.7659 3.37936 38.706 11.3194 38.706 21.1094C38.716 30.8894 30.7759 38.8294 20.9859 38.8294Z" fill="#fff"/><path d="M32.326 14.8393C32.166 13.4293 31.746 11.8193 30.426 11.0793C29.156 10.3693 27.346 10.2093 26.426 11.5393C25.536 12.8193 23.286 14.8993 24.806 16.4993L25.806 17.5493C25.806 17.5493 26.9859 18.2793 25.3559 20.1293C25.3559 20.1293 23.296 22.2993 22.296 23.1893C21.356 24.1393 19.0859 26.0893 19.0859 26.0893C17.1559 27.6193 16.4959 26.4093 16.4959 26.4093L15.4959 25.3593C13.9859 23.7693 11.766 25.8993 10.456 26.7193C9.16601 27.5293 9.19591 29.3293 9.73591 30.5993C10.3459 32.0293 12.056 32.5393 13.456 32.7793C17.486 33.4593 25.3959 26.4493 25.3959 26.4493C25.4059 26.4493 32.806 18.8993 32.326 14.8393Z" fill="#fff"/></svg>