<svg width="48" height="48" viewBox="0 0 48 48" fill="none" xmlns="http://www.w3.org/2000/svg"><path d="M23.6697 2.82724e-05C10.4797 0.230028 -0.0602906 11.14 0.169709 24.33C0.399709 37.52 11.3097 48.06 24.4997 47.83C37.6897 47.6 48.2297 36.69 47.9997 23.5C47.7697 10.32 36.8497 -0.229972 23.6697 2.82724e-05ZM24.4597 45.91C12.3297 46.12 2.28971 36.42 2.07971 24.29C1.86971 12.16 11.5697 2.12003 23.6997 1.91003C35.8297 1.70003 45.8697 11.4 46.0797 23.53C46.2897 35.67 36.5897 45.7 24.4597 45.91Z" fill="#fff"/><path d="M31.6603 16.41L17.2203 16.66C15.5803 16.69 14.2703 18.04 14.3003 19.69L14.4503 28.48C14.4803 30.12 15.8303 31.43 17.4803 31.4L31.9203 31.15C33.5603 31.12 34.8703 29.77 34.8403 28.12L34.6903 19.33C34.6603 17.7 33.3003 16.39 31.6603 16.41ZM30.2403 23.85C30.2403 24.05 30.1803 24.25 30.0603 24.42C29.9403 24.6 29.3403 24.95 29.3403 24.95L22.9603 28.52C22.8003 28.59 22.6503 28.62 22.5103 28.63C22.1203 28.64 21.7603 28.44 21.5703 28.1C21.4803 27.95 21.4303 27.78 21.4303 27.6V27.21L21.3603 23.41L21.3203 20.74L21.3103 20.35C21.3103 20.17 21.3503 20 21.4303 19.85C21.6803 19.39 22.2703 19.17 22.7703 19.37C22.7703 19.37 28.5503 22.35 29.2103 22.69C29.3603 22.77 29.9103 23.06 30.0303 23.23C30.1603 23.4 30.2303 23.61 30.2303 23.82L30.2403 23.85Z" fill="#fff"/></svg>