<svg width="12" height="12" viewBox="0 0 12 12" fill="none" xmlns="http://www.w3.org/2000/svg"><path d="M6 5.02711L2.17157 1.19869C1.86852 0.895634 1.41812 0.944769 1.16557 1.30843C0.913029 1.6721 0.953974 2.21258 1.25703 2.51563L5.54273 6.80133C5.80762 7.06622 6.19238 7.06622 6.45727 6.80133L10.743 2.51563C11.046 2.21258 11.087 1.6721 10.8344 1.30843C10.5819 0.944769 10.1315 0.895634 9.82843 1.19869L6 5.02711Z" fill="#fff"/><path d="M6 6.97289L9.82843 10.8013C10.1315 11.1044 10.5819 11.0552 10.8344 10.6916C11.087 10.3279 11.046 9.78742 10.743 9.48437L6.45727 5.19867C6.19238 4.93378 5.80762 4.93378 5.54273 5.19867L1.25703 9.48436C0.953975 9.78742 0.913029 10.3279 1.16557 10.6916C1.41812 11.0552 1.86852 11.1044 2.17157 10.8013L6 6.97289Z" fill="#fff"/></svg>